# xmcd
#
# Track frame offsets:
#   150
#   29688
#   42541
#   62480
#   102525
#   147803
#   158115
#   174295
#   218129
#   238308
#   264254
#
# Disc length: 4425 seconds
#
# Revision: 0
# Processed by: cddbd v1.5PL3 Copyright (c) Steve Scherf et al.
# Submitted via: uFREEDB ActiveX Control 1.5
#
DISCID=9c11470b
DTITLE=vcvc - cv
DYEAR=1900
DGENRE=cv
TTITLE0=vcv
TTITLE1=cvcv
TTITLE2=vc
TTITLE3=vcvcv
TTITLE4=cvcv
TTITLE5=cvcv
TTITLE6=vcvcv
TTITLE7=vcvcvcvc
TTITLE8=vcvcvc
TTITLE9=zvc
TTITLE10=xvxcvx
EXTD=sd
EXTT0=
EXTT1=
EXTT2=
EXTT3=
EXTT4=
EXTT5=
EXTT6=
EXTT7=
EXTT8=
EXTT9=
EXTT10=
PLAYORDER=
